<?xml version="1.0" encoding="UTF-8"?>
<svg width="37px" height="48px" viewBox="0 0 37 48" version="1.1" xmlns="http://www.w3.org/2000/svg" xmlns:xlink="http://www.w3.org/1999/xlink">
    <!-- Generator: Sketch 52.2 (67145) - http://www.bohemiancoding.com/sketch -->
    <title>Logo</title>
    <desc>Created with Sketch.</desc>
    <g id="Page-1-Copy" stroke="none" stroke-width="1" fill="none" fill-rule="evenodd">
        <g id="Home" transform="translate(-42.000000, -28.000000)" fill="#FFFFFF">
            <g id="Header" transform="translate(42.000000, 0.000000)">
                <path d="M20.2032548,54.934325 C25.7631802,53.077883 29.7631802,47.903378 29.7631802,41.8089018 C29.7631802,37.9678552 28.1735887,34.4916305 25.6053568,31.9818756 C23.3209018,29.7487787 20.2624174,28.2796579 16.8601458,28 L14.4714358,28 L0,28 L5.91117138,32.0895389 L16.0910324,32.0428737 C21.3876928,32.2587002 25.6153585,36.5485662 25.6153585,41.8089018 C25.6153585,46.6259179 22.0708595,50.6294595 17.4075267,51.4366009 L5.72419054,36.7172276 L0,36.7172276 L1.85641634,39.0116559 L6.01729107,44.1549952 L11.1754535,50.529296 L15.3297169,55.6639688 L31.7828445,76 L37,75.9441684 L20.2032548,54.934325 Z" id="Logo"></path>
            </g>
        </g>
    </g>
</svg>