<?xml version="1.0" encoding="UTF-8"?>
<svg width="48px" height="64px" viewBox="0 0 48 64" version="1.1" xmlns="http://www.w3.org/2000/svg" xmlns:xlink="http://www.w3.org/1999/xlink">
    <!-- Generator: Sketch 52.2 (67145) - http://www.bohemiancoding.com/sketch -->
    <title>Group 3</title>
    <desc>Created with Sketch.</desc>
    <g id="Page-1-Copy" stroke="none" stroke-width="1" fill="none" fill-rule="evenodd" fill-opacity="0.930366848">
        <g id="Home" transform="translate(-80.000000, -1749.000000)" fill="#FF001F">
            <g id="Footer" transform="translate(0.000000, 1698.000000)">
                <g id="Group-3" transform="translate(80.000000, 51.000000)">
                    <path d="M26.2096278,35.8513015 C33.422504,33.4147214 38.6116932,26.6231837 38.6116932,18.6241836 C38.6116932,13.5828099 36.5495205,9.02026499 33.2177602,5.72621168 C30.2541429,2.79527202 26.2863793,0.86705103 21.8726216,0.5 L18.7737546,0.5 L0,0.5 L7.66854666,5.86751977 L20.8748528,5.80627168 C27.7461961,6.08954408 33.2307354,11.7199931 33.2307354,18.6241836 C33.2307354,24.9465173 28.6324663,30.2011656 22.5827373,31.2605387 L7.42597692,11.9413612 L0,11.9413612 L2.4083239,14.9527984 L7.80621544,21.7034311 L14.4978856,30.0697009 L19.8872003,36.8089591 L41.2317983,63.5 L48,63.426721 L26.2096278,35.8513015 Z" id="Fill-1"></path>
                </g>
            </g>
        </g>
    </g>
</svg>